<svg xmlns="http://www.w3.org/2000/svg" width="1024" height="1024" viewBox="0 0 1024 1024">
  <defs>
    <linearGradient id="bg" x1="0" y1="0" x2="0" y2="1">
      <stop offset="0" stop-color="#5B6CFF"/><stop offset="1" stop-color="#8E3CF7"/>
    </linearGradient>
    <linearGradient id="hl" x1="0" y1="0" x2="1" y2="0">
      <stop offset="0" stop-color="#FFE27A"/><stop offset="1" stop-color="#FFC53D"/>
    </linearGradient>
    <filter id="sh" x="-20%" y="-20%" width="140%" height="160%">
      <feDropShadow dx="0" dy="14" stdDeviation="18" flood-color="#000" flood-opacity="0.28"/>
    </filter>
  </defs>
  <rect x="100" y="100" width="824" height="824" rx="185" fill="url(#bg)"/>
  <g fill="#fff" opacity="0.45">
    <rect x="230" y="265" width="420" height="44" rx="22"/>
    <rect x="300" y="375" width="360" height="36" rx="18"/>
  </g>
  <g filter="url(#sh)">
    <rect x="200" y="470" width="624" height="112" rx="30" fill="url(#hl)"/>
  </g>
  <rect x="245" y="506" width="470" height="40" rx="20" fill="#3B2A00" opacity="0.85"/>
  <g fill="#fff" opacity="0.8">
    <rect x="300" y="650" width="300" height="36" rx="18"/>
    <rect x="230" y="740" width="380" height="44" rx="22"/>
  </g>
  <g fill="#fff">
    <rect x="720" y="660" width="22" height="70" rx="11"/>
    <rect x="758" y="630" width="22" height="130" rx="11"/>
    <rect x="796" y="672" width="22" height="46" rx="11"/>
  </g>
</svg>
